const uint16_t melody_intro[] PROGMEM = {
 NOTE_DS6,107, NOTE_E6,107, NOTE_FS6,214, NOTE_B6,214, NOTE_DS6,107, NOTE_E6,107,
 NOTE_FS6,107, NOTE_B6,107, NOTE_CS7,107, NOTE_DS7,107, NOTE_CS7,107, NOTE_AS6,107, NOTE_B6,214, NOTE_FS6,214,
 NOTE_DS6,107, NOTE_E6,107, NOTE_FS6,214, NOTE_B6,107, NOTE_CS7,214, NOTE_AS6,107, NOTE_B6,107, NOTE_CS7,107,
 NOTE_E7,107, NOTE_DS7,107, NOTE_E7,107, NOTE_CS7,107,
 TONES_END
};
const uint16_t melody[] PROGMEM = {
 NOTE_FS6,214, NOTE_GS6,107, NOTE_REST,107, NOTE_CS6,107, NOTE_DS6,214, NOTE_B5,53, NOTE_REST,53, NOTE_D6,107,
 NOTE_CS6,107, NOTE_B5,107, NOTE_REST,107, NOTE_B5,107, NOTE_REST,107, NOTE_CS6,214, NOTE_D6,107, NOTE_REST,107,
 NOTE_D6,53, NOTE_REST,53, NOTE_CS6,53, NOTE_REST,53, NOTE_B5,107, NOTE_CS6,107, NOTE_DS6,107, NOTE_FS6,107,
 NOTE_GS6,107, NOTE_DS6,107, NOTE_FS6,107, NOTE_CS6,107, NOTE_D6,107, NOTE_B5,107, NOTE_CS6,107, NOTE_B5,107,
 NOTE_DS6,214, NOTE_FS6,107, NOTE_REST,107, NOTE_GS6,107, NOTE_DS6,107, NOTE_FS6,107, NOTE_CS6,107, NOTE_D6,107,
 NOTE_B5,107, NOTE_CS6,107, NOTE_DS6,107, NOTE_D6,107, NOTE_CS6,107, NOTE_B5,107, NOTE_CS6,107, NOTE_D6,107,
 NOTE_REST,107, NOTE_B5,107, NOTE_CS6,107, NOTE_D6,107, NOTE_FS6,107, NOTE_CS6,107, NOTE_D6,107, NOTE_CS6,107,
 NOTE_B5,107, NOTE_CS6,107, NOTE_REST,107, NOTE_B5,107, NOTE_REST,107, NOTE_CS6,107, NOTE_REST,107, NOTE_FS6,214,
 NOTE_GS6,107, NOTE_REST,107, NOTE_CS6,107, NOTE_DS6,214, NOTE_B5,53, NOTE_REST,53, NOTE_D6,107, NOTE_CS6,107,
 NOTE_B5,107, NOTE_REST,107, NOTE_B5,107, NOTE_REST,107, NOTE_CS6,214, NOTE_D6,107, NOTE_REST,107, NOTE_D6,53,
 NOTE_REST,53, NOTE_CS6,53, NOTE_REST,53, NOTE_B5,107, NOTE_CS6,107, NOTE_DS6,107, NOTE_FS6,107, NOTE_GS6,107,
 NOTE_DS6,107, NOTE_FS6,107, NOTE_CS6,107, NOTE_D6,107, NOTE_B5,107, NOTE_CS6,107, NOTE_B5,107, NOTE_DS6,214,
 NOTE_FS6,107, NOTE_REST,107, NOTE_GS6,107, NOTE_DS6,107, NOTE_FS6,107, NOTE_CS6,107, NOTE_D6,107, NOTE_B5,107,
 NOTE_CS6,107, NOTE_DS6,107, NOTE_D6,107, NOTE_CS6,107, NOTE_B5,107, NOTE_CS6,107, NOTE_D6,107, NOTE_REST,107,
 NOTE_B5,107, NOTE_CS6,107, NOTE_D6,107, NOTE_FS6,107, NOTE_CS6,107, NOTE_D6,107, NOTE_CS6,107, NOTE_B5,107,
 NOTE_CS6,214, NOTE_B5,107, NOTE_REST,107, NOTE_B5,107, NOTE_REST,107, NOTE_B5,107, NOTE_REST,107, NOTE_FS5,107,
 NOTE_GS5,107, NOTE_B5,107, NOTE_REST,107, NOTE_FS5,107, NOTE_GS5,107, NOTE_B5,107, NOTE_CS6,107, NOTE_DS6,107,
 NOTE_CS6,107, NOTE_E6,107, NOTE_DS6,107, NOTE_E6,107, NOTE_FS6,107, NOTE_B5,107, NOTE_REST,107, NOTE_B5,107,
 NOTE_REST,107, NOTE_FS5,107, NOTE_GS5,107, NOTE_B5,107, NOTE_GS5,107, NOTE_E6,107, NOTE_DS6,107, NOTE_CS6,107,
 NOTE_B5,107, NOTE_FS5,107, NOTE_DS5,107, NOTE_E5,107, NOTE_FS5,107, NOTE_B5,107, NOTE_REST,107, NOTE_FS5,107,
 NOTE_GS5,107, NOTE_B5,107, NOTE_REST,107, NOTE_FS5,107, NOTE_GS5,107, NOTE_B5,107, NOTE_B5,107, NOTE_CS6,107,
 NOTE_DS6,107, NOTE_B5,107, NOTE_FS5,107, NOTE_GS5,107, NOTE_FS5,107, NOTE_B5,214, NOTE_B5,107, NOTE_AS5,107,
 NOTE_B5,107, NOTE_FS5,107, NOTE_GS5,107, NOTE_B5,107, NOTE_E6,107, NOTE_DS6,107, NOTE_E6,107, NOTE_FS6,107,
 NOTE_B5,107, NOTE_REST,107, NOTE_AS5,107, NOTE_REST,107, NOTE_B5,107, NOTE_REST,107, NOTE_FS5,107, NOTE_GS5,107,
 NOTE_B5,107, NOTE_REST,107, NOTE_FS5,107, NOTE_GS5,107, NOTE_B5,107, NOTE_CS6,107, NOTE_DS6,107, NOTE_CS6,107,
 NOTE_E6,107, NOTE_DS6,107, NOTE_E6,107, NOTE_FS6,107, NOTE_B5,107, NOTE_REST,107, NOTE_B5,107, NOTE_REST,107,
 NOTE_FS5,107, NOTE_GS5,107, NOTE_B5,107, NOTE_GS5,107, NOTE_E6,107, NOTE_DS6,107, NOTE_CS6,107, NOTE_B5,107,
 NOTE_FS5,107, NOTE_DS5,107, NOTE_E5,107, NOTE_FS5,107, NOTE_B5,107, NOTE_REST,107, NOTE_FS5,107, NOTE_GS5,107,
 NOTE_B5,107, NOTE_REST,107, NOTE_FS5,107, NOTE_GS5,107, NOTE_B5,107, NOTE_B5,107, NOTE_CS6,107, NOTE_DS6,107,
 NOTE_B5,107, NOTE_FS5,107, NOTE_GS5,107, NOTE_FS5,107, NOTE_B5,214, NOTE_B5,107, NOTE_AS5,107, NOTE_B5,107,
 NOTE_FS5,107, NOTE_GS5,107, NOTE_B5,107, NOTE_E6,107, NOTE_DS6,107, NOTE_E6,107, NOTE_FS6,107, NOTE_B5,214, NOTE_CS6,214,
 TONES_REPEAT,

 NOTE_FS6,214, NOTE_GS6,107, NOTE_REST,107, NOTE_CS6,107, NOTE_DS6,214, NOTE_B5,53, NOTE_REST,53,
 NOTE_D6,107, NOTE_CS6,107, NOTE_B5,107, NOTE_REST,107, NOTE_B5,107, NOTE_REST,107, NOTE_CS6,214, NOTE_D6,107,
 NOTE_REST,107, NOTE_D6,53, NOTE_REST,53, NOTE_CS6,53, NOTE_REST,53, NOTE_B5,107, NOTE_CS6,107, NOTE_DS6,107,
 NOTE_FS6,107, NOTE_GS6,107, NOTE_DS6,107, NOTE_FS6,107, NOTE_CS6,107, NOTE_D6,107, NOTE_B5,107, NOTE_CS6,107,
 NOTE_B5,107, NOTE_DS6,214, NOTE_FS6,107, NOTE_REST,107, NOTE_GS6,107, NOTE_DS6,107, NOTE_FS6,107, NOTE_CS6,107,
 NOTE_D6,107, NOTE_B5,107, NOTE_CS6,107, NOTE_DS6,107, NOTE_D6,107, NOTE_CS6,107, NOTE_B5,107, NOTE_CS6,107,
 NOTE_D6,107, NOTE_REST,107, NOTE_B5,107, NOTE_CS6,107, NOTE_D6,107, NOTE_FS6,107, NOTE_CS6,107, NOTE_D6,107,
 NOTE_CS6,107, NOTE_B5,107, NOTE_CS6,107, NOTE_REST,107, NOTE_B5,107, NOTE_REST,107, NOTE_CS6,107, NOTE_REST,107,
 NOTE_FS6,214, NOTE_GS6,107, NOTE_REST,107, NOTE_CS6,107, NOTE_DS6,214, NOTE_B5,53, NOTE_REST,53, NOTE_D6,107,
 NOTE_CS6,107, NOTE_B5,107, NOTE_REST,107, NOTE_B5,107, NOTE_REST,107, NOTE_CS6,214, NOTE_D6,107, NOTE_REST,107,
 NOTE_D6,53, NOTE_REST,53, NOTE_CS6,53, NOTE_REST,53, NOTE_B5,107, NOTE_CS6,107, NOTE_DS6,107, NOTE_FS6,107,
 NOTE_GS6,107, NOTE_DS6,107, NOTE_FS6,107, NOTE_CS6,107, NOTE_D6,107, NOTE_B5,107, NOTE_CS6,107, NOTE_B5,107,
 NOTE_DS6,214, NOTE_FS6,107, NOTE_REST,107, NOTE_GS6,107, NOTE_DS6,107, NOTE_FS6,107, NOTE_CS6,107, NOTE_D6,107,
 NOTE_B5,107, NOTE_CS6,107, NOTE_DS6,107, NOTE_D6,107, NOTE_CS6,107, NOTE_B5,107, NOTE_CS6,107, NOTE_D6,107,
 NOTE_REST,107, NOTE_B5,107, NOTE_CS6,107, NOTE_D6,107, NOTE_FS6,107, NOTE_CS6,107, NOTE_D6,107, NOTE_CS6,107,
 NOTE_B5,107, NOTE_CS6,214, NOTE_B5,107, NOTE_REST,107, NOTE_B5,107, NOTE_REST,107, NOTE_B5,107, NOTE_REST,107,
 NOTE_FS5,107, NOTE_GS5,107, NOTE_B5,107, NOTE_REST,107, NOTE_FS5,107, NOTE_GS5,107, NOTE_B5,107, NOTE_CS6,107,
 NOTE_DS6,107, NOTE_CS6,107, NOTE_E6,107, NOTE_DS6,107, NOTE_E6,107, NOTE_FS6,107, NOTE_B5,107, NOTE_REST,107,
 NOTE_B5,107, NOTE_REST,107, NOTE_FS5,107, NOTE_GS5,107, NOTE_B5,107, NOTE_GS5,107, NOTE_E6,107, NOTE_DS6,107,
 NOTE_CS6,107, NOTE_B5,107, NOTE_FS5,107, NOTE_DS5,107, NOTE_E5,107, NOTE_FS5,107, NOTE_B5,107, NOTE_REST,107,
 NOTE_FS5,107, NOTE_GS5,107, NOTE_B5,107, NOTE_REST,107, NOTE_FS5,107, NOTE_GS5,107, NOTE_B5,107, NOTE_B5,107,
 NOTE_CS6,107, NOTE_DS6,107, NOTE_B5,107, NOTE_FS5,107, NOTE_GS5,107, NOTE_FS5,107, NOTE_B5,214, NOTE_B5,107,
 NOTE_AS5,107, NOTE_B5,107, NOTE_FS5,107, NOTE_GS5,107, NOTE_B5,107, NOTE_E6,107, NOTE_DS6,107, NOTE_E6,107,
 NOTE_FS6,107, NOTE_B5,107, NOTE_REST,107, NOTE_AS5,107, NOTE_REST,107, NOTE_B5,107, NOTE_REST,107, NOTE_FS5,107,
 NOTE_GS5,107, NOTE_B5,107, NOTE_REST,107, NOTE_FS5,107, NOTE_GS5,107, NOTE_B5,107, NOTE_CS6,107, NOTE_DS6,107,
 NOTE_CS6,107, NOTE_E6,107, NOTE_DS6,107, NOTE_E6,107, NOTE_FS6,107, NOTE_B5,107, NOTE_REST,107, NOTE_B5,107,
 NOTE_REST,107, NOTE_FS5,107, NOTE_GS5,107, NOTE_B5,107, NOTE_GS5,107, NOTE_E6,107, NOTE_DS6,107, NOTE_CS6,107,
 NOTE_B5,107, NOTE_FS5,107, NOTE_DS5,107, NOTE_E5,107, NOTE_FS5,107, NOTE_B5,107, NOTE_REST,107, NOTE_FS5,107,
 NOTE_GS5,107, NOTE_B5,107, NOTE_REST,107, NOTE_FS5,107, NOTE_GS5,107, NOTE_B5,107, NOTE_B5,107, NOTE_CS6,107,
 NOTE_DS6,107, NOTE_B5,107, NOTE_FS5,107, NOTE_GS5,107, NOTE_FS5,107, NOTE_B5,214, NOTE_B5,107, NOTE_AS5,107,
 NOTE_B5,107, NOTE_FS5,107, NOTE_GS5,107, NOTE_B5,107, NOTE_E6,107, NOTE_DS6,107, NOTE_E6,107, NOTE_FS6,107,
 NOTE_B5,214, NOTE_CS6,214,

 NOTE_E4,214, NOTE_E5,214, NOTE_FS4,214, NOTE_FS5,214, NOTE_DS4,214, NOTE_DS5,214,
 NOTE_GS4,214, NOTE_GS5,214, NOTE_CS4,214, NOTE_CS5,214, NOTE_FS4,214, NOTE_FS5,214, NOTE_B3,214, NOTE_B4,214,
 NOTE_B3,214, NOTE_B4,214, NOTE_E4,214, NOTE_E5,214, NOTE_FS4,214, NOTE_FS5,214, NOTE_DS4,214, NOTE_DS5,214,
 NOTE_GS4,214, NOTE_GS5,214, NOTE_CS4,214, NOTE_CS5,214, NOTE_FS4,214, NOTE_FS5,214, NOTE_B3,214, NOTE_B4,214,
 NOTE_B3,214, NOTE_B4,214, NOTE_E4,214, NOTE_E5,214, NOTE_FS4,214, NOTE_FS5,214, NOTE_DS4,214, NOTE_DS5,214,
 NOTE_GS4,214, NOTE_GS5,214, NOTE_CS4,214, NOTE_CS5,214, NOTE_FS4,214, NOTE_FS5,214, NOTE_B3,214, NOTE_B4,214,
 NOTE_B3,214, NOTE_B4,214, NOTE_E4,214, NOTE_E5,214, NOTE_FS4,214, NOTE_FS5,214, NOTE_DS4,214, NOTE_DS5,214,
 NOTE_GS4,214, NOTE_GS5,214, NOTE_CS4,214, NOTE_CS5,214, NOTE_FS4,214, NOTE_FS5,214, NOTE_B3,214, NOTE_B4,214,
 NOTE_B3,214, NOTE_B4,214, NOTE_E4,214, NOTE_GS4,214, NOTE_B4,214, NOTE_E5,214, NOTE_DS4,214, NOTE_FS4,214,
 NOTE_B4,214, NOTE_DS5,214, NOTE_CS4,214, NOTE_E4,214, NOTE_GS4,214, NOTE_B4,214, NOTE_B3,214, NOTE_DS4,214,
 NOTE_FS4,214, NOTE_B4,214, NOTE_E4,214, NOTE_GS4,214, NOTE_B4,214, NOTE_E5,214, NOTE_DS4,214, NOTE_FS4,214,
 NOTE_B4,214, NOTE_DS5,214, NOTE_CS4,214, NOTE_E4,214, NOTE_GS4,214, NOTE_B4,214, NOTE_B3,214, NOTE_DS4,214,
 NOTE_FS4,214, NOTE_B4,214, NOTE_E4,214, NOTE_GS4,214, NOTE_B4,214, NOTE_E5,214, NOTE_DS4,214, NOTE_FS4,214,
 NOTE_B4,214, NOTE_DS5,214, NOTE_CS4,214, NOTE_E4,214, NOTE_GS4,214, NOTE_B4,214, NOTE_B3,214, NOTE_DS4,214,
 NOTE_FS4,214, NOTE_B4,214, NOTE_E4,214, NOTE_GS4,214, NOTE_B4,214, NOTE_E5,214, NOTE_DS4,214, NOTE_FS4,214,
 NOTE_B4,214, NOTE_DS5,214, NOTE_CS4,214, NOTE_E4,214, NOTE_GS4,214, NOTE_B4,214, NOTE_B3,214, NOTE_DS4,214,
 NOTE_FS4,214, NOTE_B4,214, NOTE_E4,214, NOTE_E5,214, NOTE_FS4,214, NOTE_FS5,214, NOTE_DS4,214, NOTE_DS5,214,
 NOTE_GS4,214, NOTE_GS5,214, NOTE_CS4,214, NOTE_CS5,214, NOTE_FS4,214, NOTE_FS5,214, NOTE_B3,214, NOTE_B4,214,
 NOTE_B3,214, NOTE_B4,214, NOTE_E4,214, NOTE_E5,214, NOTE_FS4,214, NOTE_FS5,214, NOTE_DS4,214, NOTE_DS5,214,
 NOTE_GS4,214, NOTE_GS5,214, NOTE_CS4,214, NOTE_CS5,214, NOTE_FS4,214, NOTE_FS5,214, NOTE_B3,214, NOTE_B4,214,
 NOTE_B3,214, NOTE_B4,214, NOTE_E4,214, NOTE_E5,214, NOTE_FS4,214, NOTE_FS5,214, NOTE_DS4,214, NOTE_DS5,214,
 NOTE_GS4,214, NOTE_GS5,214, NOTE_CS4,214, NOTE_CS5,214, NOTE_FS4,214, NOTE_FS5,214, NOTE_B3,214, NOTE_B4,214,
 NOTE_B3,214, NOTE_B4,214, NOTE_E4,214, NOTE_E5,214, NOTE_FS4,214, NOTE_FS5,214, NOTE_DS4,214, NOTE_DS5,214,
 NOTE_GS4,214, NOTE_GS5,214, NOTE_CS4,214, NOTE_CS5,214, NOTE_FS4,214, NOTE_FS5,214, NOTE_B3,214, NOTE_B4,214,
 NOTE_B3,214, NOTE_B4,214, NOTE_E4,214, NOTE_GS4,214, NOTE_B4,214, NOTE_E5,214, NOTE_DS4,214, NOTE_FS4,214,
 NOTE_B4,214, NOTE_DS5,214, NOTE_CS4,214, NOTE_E4,214, NOTE_GS4,214, NOTE_B4,214, NOTE_B3,214, NOTE_DS4,214,
 NOTE_FS4,214, NOTE_B4,214, NOTE_E4,214, NOTE_GS4,214, NOTE_B4,214, NOTE_E5,214, NOTE_DS4,214, NOTE_FS4,214,
 NOTE_B4,214, NOTE_DS5,214, NOTE_CS4,214, NOTE_E4,214, NOTE_GS4,214, NOTE_B4,214, NOTE_B3,214, NOTE_DS4,214,
 NOTE_FS4,214, NOTE_B4,214, NOTE_E4,214, NOTE_GS4,214, NOTE_B4,214, NOTE_E5,214, NOTE_DS4,214, NOTE_FS4,214,
 NOTE_B4,214, NOTE_DS5,214, NOTE_CS4,214, NOTE_E4,214, NOTE_GS4,214, NOTE_B4,214, NOTE_B3,214, NOTE_DS4,214,
 NOTE_FS4,214, NOTE_B4,214, NOTE_E4,214, NOTE_GS4,214, NOTE_B4,214, NOTE_E5,214, NOTE_DS4,214, NOTE_FS4,214,
 NOTE_B4,214, NOTE_DS5,214, NOTE_CS4,214, NOTE_E4,214, NOTE_GS4,214, NOTE_B4,214, NOTE_B3,214, NOTE_DS4,214,
 NOTE_FS4,214, NOTE_B4,214,

 TONES_REPEAT
};
#define MULT 1.75 // 2.5 is the correct tempo, but lets speed it up for speeding up sake
const uint16_t game_over[] PROGMEM = {
 // GLITCH
 NOTE_A2,10, NOTE_B2,10, NOTE_REST,10,
 NOTE_A2,10, NOTE_B2,10, NOTE_REST,10,
 NOTE_A2,10, NOTE_B2,10, NOTE_REST,10,
 NOTE_A2,10, NOTE_B2,10, NOTE_REST,10,
 NOTE_A2,10, NOTE_B2,10, NOTE_REST,10,
 NOTE_A2,10, NOTE_B2,10, NOTE_REST,10,
 NOTE_A2,10, NOTE_B2,10, NOTE_REST,10,
 NOTE_A2,10, NOTE_B2,10, NOTE_REST,10,
 NOTE_A2,10, NOTE_B2,10, NOTE_REST,10,
 // REST
 NOTE_REST,200,
 // SAD TUNE
// NOTE_A5,100, NOTE_B5,100, NOTE_C6,600, NOTE_D6,200, NOTE_C6,200, NOTE_B5,600, NOTE_C6,200, NOTE_B5,100, NOTE_REST,100, NOTE_B5,200, NOTE_C6,100, NOTE_B5,100, NOTE_A5,600,
// NOTE_A5,200, NOTE_B5,200, NOTE_C6,1200, NOTE_D6,400, NOTE_C6,400, NOTE_B5,1200, NOTE_C6,400, NOTE_B5,200, NOTE_REST,200, NOTE_B5,400, NOTE_C6,200, NOTE_B5,200, NOTE_A5,1200,
// NOTE_A5,100*MULT, NOTE_B5,100*MULT, NOTE_C6,600*MULT, NOTE_D6,200*MULT, NOTE_C6,200*MULT, NOTE_B5,600*MULT, NOTE_C6,200*MULT, NOTE_B5,100*MULT, NOTE_REST,100*MULT, NOTE_B5,200*MULT, NOTE_C6,100*MULT, NOTE_B5,100*MULT, NOTE_A5,600*MULT,

 // NOTE_A5,100, NOTE_B5,100, NOTE_C6,500, NOTE_D6,200, NOTE_C6,100, NOTE_B5,400, NOTE_C6,200, NOTE_B5,50, NOTE_REST,50, NOTE_B5,200, NOTE_C6,50, NOTE_B5,50, NOTE_A5,600,
 // NOTE_A5,200, NOTE_B5,200, NOTE_C6,1000, NOTE_D6,400, NOTE_C6,200, NOTE_B5,800, NOTE_C6,400, NOTE_B5,100, NOTE_REST,100, NOTE_B5,400, NOTE_C6,100, NOTE_B5,100, NOTE_A5,1200,
 NOTE_A5,100*MULT, NOTE_B5,100*MULT, NOTE_C6,500*MULT, NOTE_D6,200*MULT, NOTE_C6,100*MULT, NOTE_B5,400*MULT, NOTE_C6,200*MULT, NOTE_B5,50*MULT, NOTE_REST,50*MULT, NOTE_B5,200*MULT, NOTE_C6,50*MULT, NOTE_B5,50*MULT, NOTE_A5,600*MULT,
 TONES_END
};